<svg preserveAspectRatio="none" overflow="visible" style="display: block;" width="16" height="16" viewBox="0 0 16 16" fill="none" xmlns="http://www.w3.org/2000/svg">
<g id="ShareNetwork" clip-path="url(#clip0_0_83)">
<g id="Vector">
</g>
<path id="Vector_2" d="M4 10C5.10457 10 6 9.10457 6 8C6 6.89543 5.10457 6 4 6C2.89543 6 2 6.89543 2 8C2 9.10457 2.89543 10 4 10Z" stroke="#F9F9F8" stroke-width="1.5" stroke-linecap="round" stroke-linejoin="round"/>
<path id="Vector_3" d="M11 14.5C12.1046 14.5 13 13.6046 13 12.5C13 11.3954 12.1046 10.5 11 10.5C9.89543 10.5 9 11.3954 9 12.5C9 13.6046 9.89543 14.5 11 14.5Z" stroke="#F9F9F8" stroke-width="1.5" stroke-linecap="round" stroke-linejoin="round"/>
<path id="Vector_4" d="M11 5.5C12.1046 5.5 13 4.60457 13 3.5C13 2.39543 12.1046 1.5 11 1.5C9.89543 1.5 9 2.39543 9 3.5C9 4.60457 9.89543 5.5 11 5.5Z" stroke="#F9F9F8" stroke-width="1.5" stroke-linecap="round" stroke-linejoin="round"/>
<path id="Vector_5" d="M9.31812 4.5813L5.68187 6.9188" stroke="#F9F9F8" stroke-width="1.5" stroke-linecap="round" stroke-linejoin="round"/>
<path id="Vector_6" d="M5.68187 9.0813L9.31812 11.4188" stroke="#F9F9F8" stroke-width="1.5" stroke-linecap="round" stroke-linejoin="round"/>
</g>
<defs>
<clipPath id="clip0_0_83">
<rect width="16" height="16" fill="white"/>
</clipPath>
</defs>
</svg>
